<?xml version="1.0" encoding="utf-8"?>
<!-- Generator: Adobe Illustrator 22.0.1, SVG Export Plug-In . SVG Version: 6.00 Build 0)  -->
<svg version="1.1" id="Layer_1" xmlns="http://www.w3.org/2000/svg" xmlns:xlink="http://www.w3.org/1999/xlink" x="0px" y="0px"
	 viewBox="0 0 500 500" style="enable-background:new 0 0 500 500;" xml:space="preserve">
<style type="text/css">
	.st0{fill:#FFFFFF;}
</style>
<g>
	<circle class="st0" cx="177.1" cy="147.7" r="31.7"/>
	<circle class="st0" cx="380" cy="190.2" r="31.7"/>
	
		<ellipse transform="matrix(0.1602 -0.9871 0.9871 0.1602 15.6558 411.4012)" class="st0" cx="249.6" cy="196.5" rx="31.7" ry="31.7"/>
	<path class="st0" d="M145.3,141.4L96.5,191c6.2,9.2,48.4,70.5,129.7,80.9c87.6,11.3,146.9-46.1,153.8-53
		c-9.6-8.5-19.2-17-28.8-25.4c-13.4,13.1-43.5,36.7-86.4,43.2c-57.7,8.8-121.4-34.4-117.8-44.1c0,0,7.3-11.8,16.8-16.2
		C157.6,164.8,151.4,153.1,145.3,141.4z"/>
	<path class="st0" d="M130.4,355.8h-52c3-4.6,62.6-94,171.3-90.8c104.1,3.1,158.2,88.2,162,94.4c-15.9,0-31.8,0-47.6,0
		c-4.9-6.4-45.9-57.4-116.8-58.1C177.3,300.6,135.7,349.4,130.4,355.8z"/>
	<path class="st0" d="M334.7,179.5c0.4-4.1,1.7-12.6,7.8-21c3.8-5.3,8.2-8.7,11.2-10.7c-11.6-8.8-31-21.2-57.7-28.6
		c-33.9-9.4-62.8-6.1-78.2-3.1c2.4,3,5.9,8.1,8,15.2c2.9,9.7,1.7,17.9,0.9,22c11.7-2.3,34.3-5.2,60.9,2.2
		C309.9,161.6,325.7,172.3,334.7,179.5z"/>
</g>
</svg>
