<?xml version="1.0" encoding="utf-8"?>
<!-- Generator: Adobe Illustrator 22.0.1, SVG Export Plug-In . SVG Version: 6.00 Build 0)  -->
<svg version="1.1" id="Layer_1" xmlns="http://www.w3.org/2000/svg" xmlns:xlink="http://www.w3.org/1999/xlink" x="0px" y="0px"
	 viewBox="0 0 500 500" style="enable-background:new 0 0 500 500;" xml:space="preserve">
<style type="text/css">
	.st0{fill:#FFFFFF;}
</style>
<g>
	<path class="st0" d="M309.2,103.5H190.8c-48.1,0-87.3,39.2-87.3,87.3v118.5c0,48.1,39.2,87.3,87.3,87.3h118.5
		c48.1,0,87.3-39.2,87.3-87.3V190.8C396.5,142.6,357.4,103.5,309.2,103.5L309.2,103.5z M367,309.2c0,31.9-25.9,57.8-57.8,57.8H190.8
		c-31.9,0-57.8-25.9-57.8-57.8V190.8c0-31.9,25.9-57.8,57.8-57.8h118.5c31.9,0,57.8,25.9,57.8,57.8L367,309.2L367,309.2z"/>
	<path class="st0" d="M250,174.2c-41.8,0-75.8,34-75.8,75.8s34,75.8,75.8,75.8s75.8-34,75.8-75.8S291.8,174.2,250,174.2L250,174.2z
		 M250,296.3c-25.6,0-46.3-20.7-46.3-46.3s20.7-46.3,46.3-46.3s46.3,20.7,46.3,46.3S275.6,296.3,250,296.3L250,296.3z"/>
</g>
</svg>
