<?xml version="1.0" encoding="utf-8"?>
<!-- Generator: Adobe Illustrator 22.0.1, SVG Export Plug-In . SVG Version: 6.00 Build 0)  -->
<svg version="1.1" id="Layer_1" xmlns="http://www.w3.org/2000/svg" xmlns:xlink="http://www.w3.org/1999/xlink" x="0px" y="0px"
	 viewBox="0 0 500 500" style="enable-background:new 0 0 500 500;" xml:space="preserve">
<style type="text/css">
	.st0{fill:#FFFFFF;}
</style>
<path class="st0" d="M387.3,241.1c7-7.7,10.5-18.3,10.5-31.5c0-22.9-9.7-50.2-56.1-50.2h-61.8c-3.7,0-6.7,3-6.7,6.7v167.3
	c0,3.7,3,6.7,6.7,6.7h66.6c41.9,0,66.9-19.9,67-53.3C413.5,263.9,404.3,248.1,387.3,241.1z"/>
<path class="st0" d="M208.7,268.5c19.6-7.7,31.8-26.8,31.8-51c0-36.4-24.1-58.1-64.5-58.1h-64.6c-3.7,0-6.7,3-6.7,6.7v167.3
	c0,3.7,3,6.7,6.7,6.7h138.4c1.5-0.1,3.1-0.6,4.2-1.7c2.8-2.5,3.1-6.7,0.7-9.5L208.7,268.5z"/>
</svg>
