<?xml version="1.0" encoding="utf-8"?>
<!-- Generator: Adobe Illustrator 22.0.1, SVG Export Plug-In . SVG Version: 6.00 Build 0)  -->
<svg version="1.1" id="Layer_1" xmlns="http://www.w3.org/2000/svg" xmlns:xlink="http://www.w3.org/1999/xlink" x="0px" y="0px"
	 viewBox="0 0 500 500" style="enable-background:new 0 0 500 500;" xml:space="preserve">
<style type="text/css">
	.st0{fill:#FFFFFF;}
</style>
<path class="st0" d="M385.9,108.7c-24.3,0-120.4,21.5-155.6,99.6c-4.4-5.4-22-23.5-67.3-23.5c-36.6,0-76,12.2-76,48.9
	c0,48.9,76,51.6,76,81.5c0,32.6-35.3,32.6-35.3,32.6s-5.4-43.5-40.7-43.5c-5.4,0-21.7,2.7-21.7,21.7c0,8.1,6.5,16.3,12,20.1
	c13.5,9.4,31.4,12.5,66.8,12.5c60.8,0,77.7-26.6,79.4-49.9c13.9,37.9,49.3,49.9,78.1,49.9c43.5,0,86.2-35.4,100.5-63.9
	c12.2-24.5,29.8-99.2-43.4-99.2c-38,0-65.2,17.7-65.2,17.7c0-1.4,5.6-32.6,38.2-62.5c16.3-14.9,32.5-19.7,42.1-21
	c16.3-2.1,21.5-5.1,25.6-10.3C406.6,110,399.5,108.7,385.9,108.7z M173.8,195.7c0,0-4.2,43.5,32.6,43.5c4.6,0,10.3-1.8,15.2-5.1
	c-2.8,11.6-4.4,24.1-4.4,37.7c0,2.7,0.2,5.1,0.3,7.6c-0.1-0.3-0.2-0.6-0.3-0.8c-16.3-27.2-76-27.2-76-55.7S173.8,195.7,173.8,195.7z
	 M316.2,228.3c25.6-0.3,36.3,26.7,29.3,62.5c-4.3,22.2-19.5,56.5-43.2,57.1c-13,0.3-29.3-22.6-29.3-53.1
	C272.9,253.7,298.1,228.4,316.2,228.3z"/>
</svg>
