<?xml version="1.0" encoding="utf-8"?>
<!-- Generator: Adobe Illustrator 22.0.1, SVG Export Plug-In . SVG Version: 6.00 Build 0)  -->
<svg version="1.1" id="Capa_1" xmlns="http://www.w3.org/2000/svg" xmlns:xlink="http://www.w3.org/1999/xlink" x="0px" y="0px"
	 viewBox="0 0 500 500" style="enable-background:new 0 0 500 500;" xml:space="preserve">
<style type="text/css">
	.st0{fill:#FFFFFF;}
</style>
<g>
	<path class="st0" d="M345.2,245.5c-1.3-2.9-2.8-11.5-0.3-16.4C347.8,232.9,351.2,237.8,345.2,245.5 M321.9,195.6
		c-3.6,12.9-4.1,35.3-0.4,44.6C331.5,220.6,323.2,199.2,321.9,195.6 M296.4,233.2c0.8-19.5,0.8-33.4-3.4-41.3
		C289.4,202.5,291.2,213.6,296.4,233.2 M304.1,251.9c6.6,8.6,10.2,4,11.2,0c-8.4-32.2-2.8-49.2,2.9-68.7c0,0,0,0-0.1,0
		c-0.3-0.2-16.5,6.3-18.2,7C313,211,297.4,234.7,304.1,251.9 M382.7,249.1c11.6-8.8,10.6-27,12.1-36.6c0,0,0,0-0.1,0
		c0,0-18,6.9-20.2,7.8C383.9,225.2,387,235.2,382.7,249.1 M279.8,246.7c3.6,8.3,10.2,4.9,12.9,1.4c-3.6-7.3-4.6-10.4-6.4-16.3
		C280.3,232.7,275.8,237.4,279.8,246.7 M356.2,252.3c8.3-8.3,12.8-25.2,13.1-34.1c0,0,0,0-0.1,0c0,0-17,6.5-18.6,7.2
		c7,7.3,5.5,15.9-0.7,26.5C351.7,254.1,354.5,253.4,356.2,252.3 M400.2,225.5c0.8,7.8-1.3,14.9-3.5,18.4
		C403.9,244.8,408.5,232.9,400.2,225.5 M373.4,231.2c0.1,5.7-3.4,13.7-3.4,13.7C377.2,249.7,380.5,240.6,373.4,231.2 M340.6,251.2
		c-6.1-11.3-4.1-23.3,1.4-32l0,0c0,0-6.5,2.4-7.7,2.9c-0.6,9.7-3.4,19.5-8.1,27.6C327.5,254.1,338.5,256.2,340.6,251.2 M392.4,251.9
		c-8.5,8.1-17.1,8.5-25.9,1.2c-4.7,6.6-10.8,9.4-21.4,5.6c-6.2,4.9-18.1,5-24.6-1c-6.5,9.9-16.9,8.6-23.4-1.5
		c-4.2,8.1-12.1,8.4-18.5,2.7c-5.8,7.1-13.7,7.7-18.3,0.7c-2,6.8-10.8,10.9-20.9,5.4c-3.1,5.6-13,10.7-24.1,6.1
		c-14.5,13.8-26.3,11.4-26-19.9l-5.9-1.5c0,0,0.7,19.9,0.5,22.2c-0.3,7.1-6,8.4-7.8,9c-5.4,1.6-10.3-2.8-10.9-6.5
		c-2.5-14.1-5.2-30.1-5.9-30.3c-3.7-1.2-7,33.6-16.7,41.4c-10.5,8.4-17.5,2-24.9-2.8l-6.4,6.8c-2.6-14.3-4.5-28-0.9-41.1
		c-4.7,1.2-11.5-0.9-12.5-4.2c3.4-4.6,8.9-4.5,11.9-4c1.7-5.6,2.2-12.4,0.7-19.6c9.7,0.3,10.3,7.5,10.4,9.5c0.1,4.3-1,7.4-1.5,8.7
		c4.4-2,7.7-1,10.1,0.2c2.3,1.2,3.2,3.4,3.4,5.2c-4.2,2-8.6,2.7-13,2.5c-7.1,17.8,4.2,30.1,14.2,32.9c5-32.5,2.2-70.6,10.2-88.3l0,0
		l-31.9,12.6c-2.4,5.5-3.8,11.5-4.6,17.6c-0.9,0.4-29.3,11-29.2,11.7c1.1,5.7,1.2,11.3,0,16.9h-0.1c-3.9,1.6-8.5,2.8-11.6,5.8
		c-2.6,2.4,3.4,4.6,5.1,5.1c1.5,0.4,3,0.4,4.5,0.4c0.7,0,1.4-0.1,2.1-0.3c-0.3,1-0.5,1.9-0.7,2.9c-0.9,3.9-1.2,7.9-1.3,11.9
		c-0.2,8.8,1.3,17.7,2.9,26.3c3-1.2,5.9-2.3,8.9-3.5c0.5-0.2,1.1-0.4,1.6-0.6c2.3,1.4,4.6,2.8,7.2,3.6c5.6,1.8,11.5-1.5,16.6-3.5
		c7.1-2.7,14.1-5.5,21.1-8.4c0.8,1.3,2,2.4,3.7,3.3c5.4,2.9,15-2.9,19.5-4.6c1.2-0.5,2.3-0.9,3.5-1.4c1,1.5,2.2,2.9,3.7,3.8
		c1.6,0.9,3.5,1,5.3,0.8c1-0.1,2-0.5,3-0.8c5.1-1.7,10.1-3.8,15.1-5.8c8,1.2,15-2.3,22.9-5.4c0.3-0.1,0.5-0.2,0.8-0.3
		c3.6,0.8,7,0.5,10.4-0.4l0,0l0,0c3-0.8,6-2.1,9.2-3.4c4.5,3.8,15.7-1.8,17.3-2.3c5.7,4.2,17-0.7,18.4-1.5c3.9,4.3,8.9,6.7,14.9,4.6
		c3.3-1.1,6.5-2.3,9.7-3.6c4.8,2.5,10.4,2.8,15.6,1.4c2.4-0.6,4.7-1.4,7-2.3c2.8,0.8,5.5,1.3,8.5,1.2c5-0.2,10.2-3.1,14.8-5
		c6,4.7,18.6,1,25.6-2.1c6.9,2.9,14.4,3.7,21.9,2.3c2.1-0.4,26.4-9.5,37.7-14.2C413.6,257.3,402.5,257.4,392.4,251.9 M146.7,206.6
		l-3.3,47.3C148.3,246.2,150.7,217.5,146.7,206.6 M267.4,256c0.6,2,5.9,1.5,6.5-1.6c-6-8.7-10.4-28.6,10.4-31.2
		c-3.2-17.5-0.7-30.5,6.9-42.8l0,0c-0.2-0.2-31.5,11.9-31.9,12.6c-4.9,8.1-7.4,16.7-8,25.6l0,0C259.2,218.1,262.7,238.8,267.4,256
		 M172.2,271.5c0,0,2.9,4.3,5.1,1.5c2.4-3-1.8-31.2-1.9-31.6c0,0,0,0-0.1,0c-1.4,0.1-3.5,1.3-4.7,1.7c-0.3,0.1-0.6,0.2-0.9,0.4
		c0.9,2.2,1.6,4.8,2,7.9C172.6,258.7,172.1,271.5,172.2,271.5 M192,239.5c6.3,7.8,8.5,16.2,5.4,26.9c4,5.6,7,4.9,11.6,0.4
		c-9.3-6.3-8.7-29.8,6.9-38.5l0,0c0.1,0-0.5,0.2-0.6,0.2c-3.8,1.3-24.8,8.7-30.9,12.2c-0.1,0.1-0.8,0.5-1.2,0.7
		c1.9,0.3,3.7,0.7,5.5,1.3L192,239.5z M246.2,258.1c2.1,1.3,8.6,0.5,10.2-6.5c-3.3-10.7-4-14.7-5.5-21.6
		C243.7,231.3,239.9,254.4,246.2,258.1 M221.7,263.7c2.8,1.7,12.1,2.4,13.3-3.6c-3.2-25.3,7.8-39,14.7-41.3
		c-0.2,0.1-0.4,0.1-0.5,0.2c-0.6,0.2-1.7,0.6-1.7,0.6l-28.8,10C230.7,236.6,231.2,255.1,221.7,263.7 M215.4,259.2
		c9.3-9.9,5.5-20.5,1.2-21.1C209.1,244.9,210.5,255.8,215.4,259.2 M419.8,224.9c0.4,0,0.5-0.1,0.6-0.2c0.1-0.1,0.2-0.2,0.2-0.5
		c0-0.2-0.1-0.4-0.2-0.4c-0.1-0.1-0.3-0.1-0.6-0.1l-0.9,0.1l0.1,1.1L419.8,224.9L419.8,224.9L419.8,224.9z M441,215.5
		c0,0,0-0.1-0.1-0.1l-17.3,6.6c0.7,0.8,1.2,1.8,1.3,2.9c0.3,2.8-1.8,5.4-4.6,5.7c-2.8,0.3-5.4-1.8-5.7-4.6c-0.3-2.4,1.2-4.7,3.4-5.4
		l0,0l-8.7,3.3c0.5,1,1,2,1.4,3l0,0c2.2,5.9,2,13.2-1.3,21C432.3,246.9,442.2,230.1,441,215.5 M419.3,221.1c2.4-0.2,4.5,1.5,4.7,3.9
		s-1.5,4.5-3.9,4.7s-4.5-1.5-4.7-3.8C415.2,223.5,417,221.4,419.3,221.1 M417.9,223.2l0.5,4.8l0.9-0.1l-0.2-2l0.4-0.1
		c0.1,0,0.2,0,0.2,0.1c0,0,0.1,0.1,0.2,0.3l1.2,1.5l1-0.1l-1.5-1.9l0,0c0.1-0.1,0.2-0.1,0.3-0.2c0.4-0.3,0.5-0.7,0.5-1.2
		c-0.1-0.5-0.3-0.9-0.7-1.1c-0.3-0.1-0.6-0.2-1-0.1L417.9,223.2z"/>
</g>
</svg>
